<?xml version="1.0" encoding="utf-8"?>
<!-- Generator: Adobe Illustrator 21.0.0, SVG Export Plug-In . SVG Version: 6.00 Build 0)  -->
<svg version="1.1" id="Слой_1" xmlns="http://www.w3.org/2000/svg" xmlns:xlink="http://www.w3.org/1999/xlink" x="0px" y="0px"
	 viewBox="0 0 448 512" style="enable-background:new 0 0 448 512;" xml:space="preserve">
<path d="M448,56.7v398.5c0,13.7-11.1,24.7-24.7,24.7H309.1V306.5h58.2l8.7-67.6h-67v-43.2c0-19.6,5.4-32.9,33.5-32.9h35.8v-60.5
	c-6.2-0.8-27.4-2.7-52.2-2.7c-51.6,0-87,31.5-87,89.4v49.9h-58.4v67.6h58.4V480H24.7C11.1,480,0,468.9,0,455.3V56.7
	C0,43.1,11.1,32,24.7,32h398.5C436.9,32,448,43.1,448,56.7z"/>
</svg>
