<svg xmlns="http://www.w3.org/2000/svg" viewBox="0 0 20 20"><path d="M400 32H48C21.5 32 0 53.5 0 80v352c0 26.5 21.5 48 48 48h352c26.5 0 48-21.5 48-48V80c0-26.5-21.5-48-48-48zm9.5 346H365c-16.9 0-21.9-13.5-52.2-43.8-26.5-25.5-37.8-28.8-44.4-28.8-14.2 0-11.6 4.8-11.6 55.3 0 11-3.5 17.3-31.8 17.3-47.2 0-99.1-28.7-135.9-81.5C33.7 219 18.6 160.4 18.6 148.6c0-6.7 2.6-12.6 15.3-12.6h44.5c11.4 0 15.7 5 20.1 17.3 21.8 63.5 58.5 119 73.7 119 5.7 0 8.3-2.6 8.3-17v-65.7c-1.7-30.3-17.7-32.8-17.7-43.5 0-4.9 4.2-10.2 11.3-10.2h70c9.4 0 12.5 5.1 12.5 16.4v88.3c0 9.5 4.3 12.8 7.1 12.8 5.7 0 10.4-3.3 20.8-13.7 32.1-35.9 54.8-91.1 54.8-91.1 2.8-6.7 8-12.6 19.4-12.6h44.5c13.5 0 16.3 7 13.5 16.4-5.6 25.9-60 102.5-60 102.6-4.7 7.6-6.6 11.3 0 19.8 2.6 3.6 59.8 57.9 68.3 84.3 3.7 12.6-2.8 18.9-15.5 18.9z"/><path d="M409.5 378H365c-16.9 0-21.9-13.5-52.2-43.8-26.5-25.5-37.8-28.8-44.4-28.8-14.2 0-11.6 4.8-11.6 55.3 0 11-3.5 17.3-31.8 17.3-47.2 0-99.1-28.7-135.9-81.5C33.7 219 18.6 160.4 18.6 148.6c0-6.7 2.6-12.6 15.3-12.6h44.5c11.4 0 15.7 5 20.1 17.3 21.8 63.5 58.5 119 73.7 119 5.7 0 8.3-2.6 8.3-17v-65.7c-1.7-30.3-17.7-32.8-17.7-43.5 0-4.9 4.2-10.2 11.3-10.2h70c9.4 0 12.5 5.1 12.5 16.4v88.3c0 9.5 4.3 12.8 7.1 12.8 5.7 0 10.4-3.3 20.8-13.7 32.1-35.9 54.8-91.1 54.8-91.1 2.8-6.7 8-12.6 19.4-12.6h44.5c13.5 0 16.3 7 13.5 16.4-5.6 25.9-60 102.5-60 102.6-4.7 7.6-6.6 11.3 0 19.8 2.6 3.6 59.8 57.9 68.3 84.3 3.7 12.6-2.8 18.9-15.5 18.9z"/></svg>